<?xml version="1.0" encoding="UTF-8"?>
<svg id="Layer_2" data-name="Layer 2" xmlns="http://www.w3.org/2000/svg" viewBox="0 0 1729.78 207.64">
  <defs>
    <style>
      .cls-1 {
        fill: #0f172a;
      }
    </style>
  </defs>
  <g id="Layer_1-2" data-name="Layer 1">
    <path class="cls-1" d="M350.83,2.01c-9.79,0-17.9,8.11-17.9,17.9v55.67c-11.47-11.47-27.14-17.9-45.32-17.9-39.44,0-67.42,31.05-67.42,74.69s31.05,75.25,74.69,75.25c15.01,0,28.5-3.72,39.74-10.42,2.87,6.11,9.09,10.42,16.21,10.42,10.07,0,18.18-8.11,18.18-17.9V19.91c0-9.79-8.11-17.9-18.18-17.9ZM294.88,175.17c-23.22,0-39.44-17.34-39.44-42.8s16.22-42.24,39.44-42.24,38.88,17.34,38.88,42.24-16.22,42.8-38.88,42.8ZM493.99,122.22c0-18.28-10.85-31.13-25.99-31.13s-26.28,12.85-26.28,31.13v79.97c0,2.86-2.57,5.43-5.43,5.43h-25.99c-2.86,0-5.43-2.57-5.43-5.43v-124.81c0-10,8.28-18.28,18.56-18.28,8,0,14.57,5.14,17.14,12.28,9.43-8,21.42-12.57,35.13-12.57,18.85,0,34.56,8.85,44.27,23.71,9.71-14.85,25.42-23.71,44.84-23.71,32.28,0,55.12,25.7,55.12,62.55v80.83c0,2.86-2.57,5.43-5.43,5.43h-25.99c-2.85,0-5.43-2.57-5.43-5.43v-79.97c0-18.28-10.85-31.13-25.99-31.13s-26.28,12.85-26.28,31.13v79.97c0,2.86-2.57,5.43-5.43,5.43h-25.99c-2.85,0-5.43-2.57-5.43-5.43v-79.97ZM674.06,2.46c12.28,0,22.28,10,22.28,22.28s-10,22.28-22.28,22.28-22.56-10-22.56-22.28,10-22.28,22.56-22.28ZM655.24,77.38c0-10,8.28-18.28,18.56-18.28s18.28,8.28,18.28,18.28v124.81c0,2.86-2.57,5.43-5.43,5.43h-25.99c-2.86,0-5.43-2.57-5.43-5.43v-124.81ZM827.92,124.1c0-19.7-13.14-33.49-31.7-33.49s-31.99,13.79-31.99,33.49v78.17c0,2.81-2.57,5.35-5.43,5.35h-25.99c-2.86,0-5.43-2.53-5.43-5.35v-125.17c0-9.85,8.28-18.01,18.56-18.01,8.57,0,15.99,5.91,17.71,13.79,10.57-9.01,24.28-14.07,40.27-14.07,35.7,0,60.84,26.45,60.84,64.44v79.02c0,2.81-2.57,5.35-5.43,5.35h-25.99c-2.86,0-5.43-2.53-5.43-5.35v-78.17ZM122.99,17.19c-4.3-10.22-13.18-15.19-22.06-15.19s-18.05,4.97-22.35,15.19L.67,199.74c-1.72,4.38,0,7.89,3.72,7.89h31.51c3.44,0,6.59-.29,8.31-4.67l14.04-35.05,6.54-16.47c21.06,18.54,59.32,48.06,96.79,55.7,0,0,0,0,0,0,1.26.4,2.64.5,4.09.5h31.51c3.72,0,5.44-3.51,3.72-7.89L122.99,17.19ZM78.66,116.51l22.27-56.09,7.76,19.55,7.93,19.98,25.55,63.12c-15.18-7.71-30.38-18.45-43.01-28.6l-20.51-17.97ZM674.06.82c12.28,0,22.28,10,22.28,22.28s-10,22.28-22.28,22.28-22.56-10-22.56-22.28,10-22.28,22.56-22.28ZM1319.99,60.39c1.18,5.55,1.82,11.38,1.82,17.46,0,44.31-30.73,75.26-74.72,75.26s-74.17-30.95-74.17-75.26c0-6.07.64-11.91,1.81-17.46h40.71c-2.17,5.13-3.39,11-3.39,17.46,0,22.86,14.41,38.82,35.04,38.82s35.58-15.6,35.58-38.82c0-6.46-1.23-12.33-3.44-17.46h40.75ZM926.75,88.53c-4.24-10.47,1.13-22.63,12.16-26.87,2.26-.85,4.53-1.41,6.79-1.41,7.92,0,15.84,5.37,19.24,14.14l27.44,71.29,27.16-71.29c3.4-8.77,11.32-13.86,20.65-13.86,8.2,0,15.84,5.09,19.52,13.86l27.44,71.29,27.16-71.29c3.4-8.77,11.32-14.14,19.24-14.14,2.26,0,4.53.57,6.79,1.41,11.03,4.24,16.41,16.41,11.88,26.87l-46.39,108.91c-2.83,7.07-7.64,10.18-14.43,10.18h-8.77c-7.07,0-11.6-3.11-14.71-10.18l-28.29-69.3-28.57,69.3c-2.83,7.07-7.64,10.18-14.43,10.18h-8.77c-7.07,0-11.6-3.11-14.71-10.18l-46.39-108.91ZM1182.44,207.62c12.38-22.32,35.86-36.43,64.65-36.43s52.66,14.11,65.13,36.43h-129.78ZM1436.56,57.12c8.85,0,15.99,7.14,15.99,15.99s-7.14,15.99-15.99,15.99h-8.57c-21.14,0-31.7,14.28-31.7,34.27v76.83c0,2.86-2.57,5.43-5.43,5.43h-25.99c-2.86,0-5.43-2.57-5.43-5.43v-77.69c0-38.56,25.13-65.4,68.55-65.4h8.57ZM1530.19,139.66l-18.28,17.71v42.84c0,2.86-2.57,5.43-5.43,5.43h-25.99c-2.86,0-5.43-2.57-5.43-5.43V18.28c0-10,8.28-18.28,18.56-18.28s18.28,8.28,18.28,18.28v93.68l50.84-49.7c3.14-3.14,7.43-4.57,11.42-4.57,4.28,0,8.28,1.43,11.14,4.57,6.28,6.57,6.57,16.57.29,22.85l-30.27,29.7,46.56,65.69c5.43,7.71,3.14,18.28-4.86,24.28-2.85,2-6.28,2.86-9.71,2.86-5.43,0-11.14-2.57-14.28-7.14l-42.84-60.84ZM1723.41,82.61c0,8.04-6.1,15.24-14.96,15.24-3.6,0-7.76-1.38-11.92-3.6-7.2-3.6-14.13-5.27-22.17-5.27s-13.02,4.16-13.02,10.53c0,20.23,68.44,10.25,68.44,60.69,0,27.99-21.06,45.45-54.04,45.45-15.24,0-53.2-3.88-53.2-25.77,0-8.04,6.37-15.24,15.79-15.24,3.6,0,8.04,1.39,12.47,3.6,8.04,4.16,15.79,5.27,24.94,5.27,12.47,0,18.84-6.37,18.84-12.47,0-22.17-68.44-12.19-68.44-60.69,0-26.6,18.29-43.5,48.21-43.5,15.24,0,49.05,4.71,49.05,25.77Z"/>
  </g>
</svg>